<?xml version="1.0" encoding="UTF-8" standalone="no"?>
<svg
   width="1283"
   height="750"
   overflow="hidden"
   version="1.1"
   id="svg6"
   sodipodi:docname="imf_sketch.svg"
   inkscape:version="1.3.2 (091e20e, 2023-11-25, custom)"
   xmlns:inkscape="http://www.inkscape.org/namespaces/inkscape"
   xmlns:sodipodi="http://sodipodi.sourceforge.net/DTD/sodipodi-0.dtd"
   xmlns="http://www.w3.org/2000/svg"
   xmlns:svg="http://www.w3.org/2000/svg">
  <defs
     id="defs6" />
  <sodipodi:namedview
     id="namedview6"
     pagecolor="#ffffff"
     bordercolor="#000000"
     borderopacity="0.25"
     inkscape:showpageshadow="2"
     inkscape:pageopacity="0.0"
     inkscape:pagecheckerboard="0"
     inkscape:deskcolor="#d1d1d1"
     inkscape:zoom="0.55962588"
     inkscape:cx="641.5"
     inkscape:cy="374.35724"
     inkscape:window-width="1600"
     inkscape:window-height="971"
     inkscape:window-x="2551"
     inkscape:window-y="368"
     inkscape:window-maximized="1"
     inkscape:current-layer="g6" />
  <g
     transform="translate(14 -8)"
     id="g6">
    <path
       d="M100.446 659 100.446 39.6113 83 39.6113 105 9 127 39.6113 109.554 39.6113 109.554 659Z"
       fill-rule="evenodd"
       id="path1" />
    <path
       d="M101 650.445 1237.39 650.445 1237.39 633 1268 655 1237.39 677 1237.39 659.555 101 659.555Z"
       fill-rule="evenodd"
       id="path2" />
    <path
       d="M162 141C163.915 222.793 165.831 304.587 194.898 372.636 223.965 440.684 277.668 538.326 336.403 549.292 395.138 560.258 468.669 440.309 547.308 438.431 625.947 436.553 728.621 524.881 808.236 538.025 887.851 551.169 1025 517.295 1025 517.295L1025 517.295 1025 517.295 1025 517.295 1025 517.295 1025 517.295"
       stroke="#4472C4"
       stroke-width="8"
       stroke-miterlimit="8"
       fill="none"
       fill-rule="evenodd"
       id="path3" />
    <path
       d="M283 233 873 234 873 234"
       stroke="#ED7D31"
       stroke-width="8"
       stroke-miterlimit="8"
       fill="none"
       fill-rule="evenodd"
       id="path4" />
    <path
       d="M676 352.417C772.009 367.624 868.019 382.83 931.774 348.362 995.53 313.893 1015.83 107.831 1058.53 145.604 1101.24 183.377 1188 575 1188 575L1188 575"
       stroke="#70AD47"
       stroke-width="8"
       stroke-miterlimit="8"
       fill="none"
       fill-rule="evenodd"
       id="path5" />
    <text
       font-family="'Libertinus Serif', 'Libertinus Serif_MSFontService', sans-serif"
       font-weight="400"
       font-size="59px"
       id="text5"
       x="623.28601"
       y="720">time</text>
    <text
       font-family="Libertinus Serif,Libertinus Serif_MSFontService,sans-serif"
       font-weight="400"
       font-size="59"
       transform="matrix(-1.83697e-16 -1 1 -1.83697e-16 59.9 472)"
       id="text6">frequency</text>
  </g>
</svg>
